<svg viewBox="0 0 640 400" data-background-color="#0a192f" preserveAspectRatio="xMidYMid meet" height="57" width="100" xmlns="http://www.w3.org/2000/svg" xmlns:xlink="http://www.w3.org/1999/xlink"><rect width="640" height="400" x="0" y="0" opacity="1" fill="#0a192f" data-fill-palette-color="background" id="background"></rect><g id="tight-bounds" transform="matrix(1,0,0,1,122.24000000000001,76.4)"><svg viewBox="0 0 395.52 247.2" height="247.2" width="395.52"><g><svg></svg></g><g><svg viewBox="0 0 395.52 247.2" height="247.2" width="395.52"><mask id="a4348c9b-2974-43dc-ad7a-65f38de5fd4d"><rect width="395.52" height="247.2" fill="white"></rect><g transform="matrix(1,0,0,1,61.920438489646784,37.08)" id="clone"><svg viewBox="0 0 271.6791230207064 173.04" height="173.04" width="271.6791230207064"><g><svg viewBox="0 0 271.6791230207064 173.04" height="173.04" width="271.6791230207064"><g><svg viewBox="0 0 271.6791230207064 173.04" height="173.04" width="271.6791230207064"><g><svg viewBox="0 0 271.6791230207064 173.04" height="173.04" width="271.6791230207064"><g id="SvgjsG3922"><svg viewBox="0 0 271.6791230207064 173.04" height="173.04" width="271.6791230207064" id="SvgjsSvg3921"><g><svg viewBox="0 0 271.6791230207064 173.04" height="173.04" width="271.6791230207064"><g transform="matrix(1,0,0,1,0,0)"><svg width="271.6791230207064" viewBox="-2.8499999940395355 -38.45000076293945 65.44999694824219 42.04999923706055" height="173.04" data-palette-color="#32edc1"><path d="M30.4-1.95L30.75 0 21.05 0 19.9-1.2 23.8-2.3 22.25-9.35 21.05-11.65 8.65-10.1 7.85-7.4 7.1-2.3 10.2-1.2 10.2 0.4 0.15-0.35 0.15-1.95 3.2-2.7 12.5-35.3 17.95-34.5 27.7-2.7 30.4-1.95ZM9.8-13.15L19.9-15.1 15.65-30.65 14.9-30.25 9.8-14 9.8-13.15ZM59.55-7.3L59.6 0.6 33.6 0.25 33.35-1.45 38.35-2.35 36.65-32.15 32.2-33.7 31.8-35.45 58.7-34.8 58.75-28.35 56.2-28.45 55.45-31.6 41.9-31.65 40.95-30.4 41.2-19.65 56.6-18.6 56.15-16.4 41.35-16.1 41.2-11.95 43.75-3.45 56.4-2.95 57-7 59.55-7.3Z" opacity="1" transform="matrix(1,0,0,1,0,0)" fill="black" class="wordmark-text-0" id="SvgjsPath3920" stroke-width="5" stroke="black" stroke-linejoin="round"></path></svg></g></svg></g></svg></g></svg></g></svg></g></svg></g></svg></g></mask><g mask="url(#a4348c9b-2974-43dc-ad7a-65f38de5fd4d)"><g><path xmlns="http://www.w3.org/2000/svg" d="M301.279 230.928l2.424 13.502h-67.167l-7.963-8.309 27.005-7.617-10.732-48.817-8.31-15.926-85.862 10.733-5.539 18.696-5.193 35.314 21.465 7.617v11.079l-69.59-5.193v-11.079l21.119-5.194 64.397-225.734 37.738 5.54 67.513 220.194zM158.637 153.375l69.936-13.503-29.428-107.674-5.193 2.77-35.315 112.521z" fill="#32edc1" fill-rule="nonzero" stroke="none" stroke-width="1" stroke-linecap="butt" stroke-linejoin="miter" stroke-miterlimit="10" stroke-dasharray="" stroke-dashoffset="0" font-family="none" font-weight="none" font-size="none" text-anchor="none" style="mix-blend-mode: normal" data-fill-palette-color="tertiary"></path></g></g><g transform="matrix(1,0,0,1,61.920438489646784,37.08)"><svg viewBox="0 0 271.6791230207064 173.04" height="173.04" width="271.6791230207064"><g><svg viewBox="0 0 271.6791230207064 173.04" height="173.04" width="271.6791230207064"><g><svg viewBox="0 0 271.6791230207064 173.04" height="173.04" width="271.6791230207064"><g><svg viewBox="0 0 271.6791230207064 173.04" height="173.04" width="271.6791230207064"><g id="textblocktransform"><svg viewBox="0 0 271.6791230207064 173.04" height="173.04" width="271.6791230207064" id="textblock"><g><svg viewBox="0 0 271.6791230207064 173.04" height="173.04" width="271.6791230207064"><g transform="matrix(1,0,0,1,0,0)"><svg width="271.6791230207064" viewBox="-2.8499999940395355 -38.45000076293945 65.44999694824219 42.04999923706055" height="173.04" data-palette-color="#32edc1"><path d="M30.4-1.95L30.75 0 21.05 0 19.9-1.2 23.8-2.3 22.25-9.35 21.05-11.65 8.65-10.1 7.85-7.4 7.1-2.3 10.2-1.2 10.2 0.4 0.15-0.35 0.15-1.95 3.2-2.7 12.5-35.3 17.95-34.5 27.7-2.7 30.4-1.95ZM9.8-13.15L19.9-15.1 15.65-30.65 14.9-30.25 9.8-14 9.8-13.15ZM59.55-7.3L59.6 0.6 33.6 0.25 33.35-1.45 38.35-2.35 36.65-32.15 32.2-33.7 31.8-35.45 58.7-34.8 58.75-28.35 56.2-28.45 55.45-31.6 41.9-31.65 40.95-30.4 41.2-19.65 56.6-18.6 56.15-16.4 41.35-16.1 41.2-11.95 43.75-3.45 56.4-2.95 57-7 59.55-7.3Z" opacity="1" transform="matrix(1,0,0,1,0,0)" fill="#32edc1" class="wordmark-text-0" data-fill-palette-color="primary" id="text-0"></path></svg></g></svg></g></svg></g></svg></g></svg></g></svg></g></svg></g></svg></g><defs></defs></svg><rect width="395.52" height="247.2" fill="none" stroke="none" visibility="hidden"></rect></g></svg>